<svg id="Layer_1" data-name="Layer 1" xmlns="http://www.w3.org/2000/svg" viewBox="0 0 592.56 479.65"><defs><style>.cls-1{fill:#36a9e1;}</style></defs><path class="cls-1" d="M702.28,408.67,520.71,227.11a157,157,0,0,0-222,0L117.16,408.67a12.72,12.72,0,0,0,0,18L310,619.47a141,141,0,0,0,199.47,0L702.28,426.65A12.72,12.72,0,0,0,702.28,408.67ZM199.07,426.32,315.35,542.59a12.74,12.74,0,0,1,0,18l-2.72,2.72a12.72,12.72,0,0,1-18,0L149.08,417.73l1.38-1.38-.4-.4L295.62,270.38a12.72,12.72,0,0,1,18,0l2.71,2.72a12.7,12.7,0,0,1,0,18L199.07,408.33A12.72,12.72,0,0,0,199.07,426.32Zm273.68-159L375.21,575a12.7,12.7,0,0,1-16,8.27h0a12.72,12.72,0,0,1-8.28-16l97.54-307.65a12.7,12.7,0,0,1,16-8.27h0A12.71,12.71,0,0,1,472.75,267.35Zm50,295.46a12.72,12.72,0,0,1-18,0L502,560.09a12.72,12.72,0,0,1,0-18L618.32,425.83a12.7,12.7,0,0,0,0-18L501.07,290.59a12.7,12.7,0,0,1,0-18l2.72-2.72a12.72,12.72,0,0,1,18,0L667.34,415.46l-.4.4,1.37,1.38Z" transform="translate(-113.44 -181.13)"/></svg>